<svg width="78" height="97" viewBox="0 0 78 97" fill="none" xmlns="http://www.w3.org/2000/svg">
<path fill-rule="evenodd" clip-rule="evenodd" d="M38.7016 0C44.8333 0 49.8677 4.79839 50.4025 10.9196C63.9403 15.6346 73.6551 28.5103 73.6551 43.6551V47.5V65.9638C73.6551 66.4847 73.7365 67.0025 73.8964 67.4982L77.7551 79.4656C78.7961 82.6941 76.3885 86 72.9963 86H52.9441C51.3482 92.4639 46.4719 97 39.2125 97C31.7999 97 26.8721 92.8573 25.3842 86H5.00368C1.61156 86 -0.796028 82.6941 0.244942 79.4656L4.10365 67.4982C4.2635 67.0025 4.34491 66.4847 4.34491 65.9638V47.5V43.6551C4.34491 28.7403 13.7669 16.0261 26.9835 11.14C27.4151 4.91397 32.4966 0 38.7016 0ZM32.6641 86H32.6767H32.7092H32.7415H32.7735H32.8052H32.8367H32.8678H32.8987H32.9293H32.9596H32.9897H33.0194H33.0489H33.0782H33.1071H33.1358H33.1643H33.1925H33.2204H33.2481H33.2755H33.3026H33.3295H33.3562H33.3826H33.4087H33.4346H33.4603H33.4857H33.5109H33.5358H33.5605H33.585H33.6092H33.6332H33.657H33.6805H33.7038H33.7269H33.7498H33.7724H33.7948H33.817H33.839H33.8608H33.8823H33.9037H33.9248H33.9457H33.9664H33.987H34.0073H34.0274H34.0473H34.067H34.0865H34.1058H34.1249H34.1439H34.1626H34.1812H34.1996H34.2177H34.2357H34.2536H34.2712H34.2887H34.306H34.3231H34.34H34.3568H34.3734H34.3898H34.4061H34.4222H34.4382H34.4539H34.4696H34.485H34.5003H34.5155H34.5305H34.5454H34.5601H34.5746H34.5891H34.6033H34.6175H34.6315H34.6453H34.659H34.6726H34.6861H34.6994H34.7126H34.7256H34.7386H34.7514H34.7641H34.7766H34.7891H34.8014H34.8136H34.8257H34.8377H34.8496H34.8614H34.873H34.8846H34.896H34.9074H34.9186H34.9298H34.9409H34.9518H34.9627H34.9735H34.9841H34.9947H35.0052H35.0157H35.026H35.0363H35.0464H35.0565H35.0666H35.0765H35.0864H35.0962H35.1059H35.1156H35.1252H35.1347H35.1442H35.1536H35.163H35.1723H35.1815H35.1907H35.1998H35.2089H35.218H35.227H35.2359H35.2448H35.2537H35.2625H35.2712H35.28H35.2887H35.2974H35.306H35.3146H35.3232H35.3317H35.3403H35.3488H35.3573H35.3657H35.3742H35.3826H35.391H35.3994H35.4078H35.4162H35.4246H35.4329H35.4413H35.4497H35.458H35.4664H35.4748H35.4831H35.4915H35.4999H35.5083H35.5167H35.5251H35.5335H35.542H35.5504H35.5589H35.5674H35.5759H35.5845H35.5931H35.6017H35.6103H35.619H35.6277H35.6364H35.6452H35.654H35.6628H35.6717H35.6807H35.6896H35.6987H35.7077H35.7169H35.7261H35.7353H35.7446H35.7539H35.7633H35.7728H35.7823H35.7919H35.8016H35.8113H35.8211H35.831H35.8409H35.8509H35.861H35.8712H35.8814H35.8918H35.9022H35.9127H35.9233H35.9339H35.9447H35.9555H35.9665H35.9775H35.9887H35.9999H36.0112H36.0227H36.0342H36.0459H36.0576H36.0695H36.0815H36.0935H36.1057H36.1181H36.1305H36.143H36.1557H36.1685H36.1814H36.1945H36.2077H36.221H36.2344H36.248H36.2617H36.2755H36.2895H36.3036H36.3178H36.3322H36.3468H36.3615H36.3763H36.3913H36.4064H36.4217H36.4372H36.4528H36.4685H36.4845H36.5005H36.5168H36.5332H36.5498H36.5665H36.5835H36.6006H36.6178H36.6353H36.6529H36.6707H36.6887H36.7068H36.7252H36.7437H36.7624H36.7813H36.8004H36.8197H36.8392H36.8589H36.8788H36.8988H36.9191H36.9396H36.9603H36.9812H37.0023H37.0236H37.0451H37.0669H37.0888H37.111H37.1334H37.156H37.1788H37.2019H37.2252H37.2487H37.2724H37.2964H37.3206H37.345H37.3697H37.3946H37.4197H37.4451H37.4707H37.4966H37.5227H37.5491H37.5757H37.6026H37.6297H37.6571H37.6847H37.7126H37.7407H37.7691H37.7978H37.8268H37.856H37.8854H37.9152H37.9452H37.9755H38.006H38.0369H38.068H38.0994H38.1311H38.163H38.1953H38.2278H38.2606H38.2937H38.3271H38.3608H38.3948H38.4291H38.4637H38.4986H38.5338H38.5693H38.6051H38.6412H38.6776H38.7144H38.7514H38.7888H38.8265H38.8644H38.9028H38.9414H38.9804H39.0196H39.0592H39.0992H39.1394H39.18H39.221H39.2622H39.3038H39.3458H39.3881H39.4307H39.4737H39.517H39.5606H39.6046H39.649H39.6937H39.7388H39.7842H39.83H39.8758H39.9212H39.9663H40.0111H40.0555H40.0996H40.1433H40.1867H40.2298H40.2726H40.315H40.3571H40.3989H40.4403H40.4814H40.5222H40.5627H40.6029H40.6427H40.6823H40.7215H40.7604H40.799H40.8373H40.8753H40.9129H40.9503H40.9874H41.0241H41.0606H41.0968H41.1326H41.1682H41.2035H41.2385H41.2732H41.3076H41.3418H41.3756H41.4092H41.4425H41.4755H41.5082H41.5406H41.5728H41.6047H41.6363H41.6677H41.6988H41.7296H41.7601H41.7904H41.8204H41.8502H41.8797H41.9089H41.9379H41.9667H41.9951H42.0234H42.0513H42.0791H42.1065H42.1338H42.1608H42.1875H42.214H42.2403H42.2663H42.2921H42.3177H42.343H42.3681H42.393H42.4176H42.442H42.4662H42.4902H42.5139H42.5374H42.5607H42.5838H42.6067H42.6293H42.6517H42.674H42.696H42.7178H42.7394H42.7608H42.782H42.803H42.8238H42.8444H42.8648H42.885H42.905H42.9249H42.9445H42.9639H42.9832H43.0023H43.0211H43.0398H43.0584H43.0767H43.0949H43.1129H43.1307H43.1483H43.1658H43.1831H43.2002H43.2172H43.234H43.2506H43.2671H43.2834H43.2995H43.3155H43.3314H43.3471H43.3626H43.378H43.3932H43.4083H43.4232H43.438H43.4527H43.4672H43.4816H43.4958H43.5099H43.5239H43.5377H43.5514H43.5649H43.5784H43.5917H43.6049H43.6179H43.6308H43.6437H43.6563H43.6689H43.6814H43.6937H43.706H43.7181H43.7301H43.742H43.7538H43.7655H43.7771H43.7885H43.7999H43.8112H43.8224H43.8335H43.8445H43.8554H43.8662H43.8769H43.8876H43.8981H43.9086H43.9189H43.9292H43.9395H43.9496H43.9597H43.9696H43.9796H43.9894H43.9992H44.0089H44.0185H44.0281H44.0376H44.047H44.0564H44.0657H44.075H44.0842H44.0933H44.1024H44.1115H44.1205H44.1294H44.1383H44.1472H44.156H44.1648H44.1735H44.1822H44.1908H44.1995H44.208H44.2166H44.2251H44.2336H44.242H44.2505H44.2589H44.2673H44.2756H44.284H44.2923H44.3006H44.3089H44.3172H44.3254H44.3337H44.3419H44.3502H44.3584H44.3666H44.3749H44.3831H44.3913H44.3995H44.4078H44.416H44.4242H44.4325H44.4408H44.449H44.4573H44.4656H44.4739H44.4823H44.4906H44.499H44.5074H44.5158H44.5242H44.5327H44.5412H44.5497H44.5583H44.5669H44.5755H44.5842H44.5929H44.6016H44.6104H44.6192H44.6281H44.637H44.646H44.655H44.6641H44.6732H44.6824H44.6916H44.7009H44.7102H44.7196H44.7291H44.7386H44.7482H44.7579H44.7676H44.7774H44.7873H44.7972H44.8072H44.8173H44.8275H44.8378H44.8481H44.8585H44.869H44.8796H44.8902H44.901H44.9118H44.9228H44.9338H44.9449H44.9562H44.9675H44.9789H44.9904H45.0021H45.0138H45.0256H45.0376H45.0496H45.0618H45.0741H45.0864H45.0989H45.1116H45.1243H45.1372H45.1502H45.1633H45.1765H45.1898H45.2033H45.2169H45.2307H45.2446H45.2586H45.2727H45.287H45.3014H45.316H45.3307H45.3456H45.3605H45.3757H45.391H45.4064H45.422H45.4378H45.4537H45.4697H45.4859H45.5023H45.5189H45.5355H45.5524H45.5694H45.577C45.3185 86.5795 45.0192 87.0852 44.6958 87.5142C43.6024 88.9647 41.9195 90 39.2125 90C36.1895 90 34.5829 88.9763 33.6485 87.7843C33.2943 87.3324 32.9509 86.7436 32.6641 86ZM25.0106 79H7.74995L10.7659 69.6464C11.1495 68.4565 11.3449 67.214 11.3449 65.9638V47.5V43.6551C11.3449 28.3816 23.7265 16 39 16C54.2735 16 66.6551 28.3816 66.6551 43.6551V47.5V65.9638C66.6551 67.214 66.8505 68.4565 67.2341 69.6464L70.2501 79H53.4144H39.83H25.0106Z" fill="black"/>
</svg>
