<svg width="11" height="11" viewBox="0 0 11 11" fill="none" xmlns="http://www.w3.org/2000/svg">
<path fill-rule="evenodd" clip-rule="evenodd" d="M8.32365 4.67488C8.32365 6.7071 6.68156 8.34976 4.66182 8.34976C2.64209 8.34976 1 6.7071 1 4.67488C1 2.64266 2.64209 1 4.66182 1C6.68156 1 8.32365 2.64266 8.32365 4.67488ZM7.60345 8.30175C6.80111 8.95694 5.77721 9.34976 4.66182 9.34976C2.08717 9.34976 0 7.25674 0 4.67488C0 2.09301 2.08717 0 4.66182 0C7.23648 0 9.32365 2.09301 9.32365 4.67488C9.32365 5.7775 8.94298 6.79096 8.30625 7.59032L10.8532 10.1442C11.0482 10.3397 11.0482 10.6567 10.8532 10.8522C10.6582 11.0478 10.342 11.0478 10.147 10.8522L7.60345 8.30175Z" fill="#555555"/>
</svg>
